<svg clip-rule="evenodd" fill-rule="evenodd" height="2.667in" image-rendering="optimizeQuality" shape-rendering="geometricPrecision" text-rendering="geometricPrecision" viewBox="0 0 2667 2667" width="2.667in" xmlns="http://www.w3.org/2000/svg"><g id="Layer_x0020_1"><circle cx="1333" cy="1333" fill="#fb8b24" r="1333"/><path d="m848 1969c-90 0-163-73-163-164 0-90 73-163 163-163s163 73 163 163c0 91-73 164-163 164zm485-818c-4 0-8-1-11-3l-424-182v261l435 188 436-188v-261l-424 182c-4 2-8 3-12 3zm-494-210-228-99c-23-10-23-43 0-54l711-306c7-3 16-3 23 0l710 306c12 5 18 16 18 28v306c0 38-59 38-59 0v-262l-187 81v305c0 12-6 23-17 27l-465 201h-23l-465-201c-11-4-18-15-18-27zm-142-126 636 275 569-245h-569c-38 0-38-59 0-59h569l-569-245zm1190 1372h-136c-16 0-30-13-30-30v-87c-30-11-58-27-83-48l-75 44c-14 8-32 3-41-11l-67-118c-8-14-4-32 10-40l76-43c-6-32-6-65 0-97l-76-43c-14-8-18-26-10-40l67-118c9-14 27-19 41-11l75 44c25-21 53-37 83-48v-87c0-17 14-30 30-30h136c16 0 29 13 29 30v87c30 11 58 27 83 48l76-44c14-8 32-3 40 11l68 118c8 14 3 32-11 40l-76 43c6 32 6 65 0 97l76 43c14 8 19 26 11 40l-68 118c-8 14-26 19-40 11l-76-44c-25 21-53 37-83 48v87c0 17-13 30-29 30zm-107-59h77v-79c0-41 50-18 118-84 9-9 24-11 35-5l69 40 38-67c-119-69-75-36-75-128 0-91-44-58 75-127l-38-67-69 39c-35 21-41-34-131-60-13-3-22-15-22-28v-79h-77v79c0 41-50 18-117 84-10 9-24 11-36 4l-68-39-39 67c120 69 76 36 76 127 0 92 44 59-76 128l39 67 68-40c36-20 42 35 132 60 12 4 21 16 21 29zm39-159c-90 0-164-73-164-164 0-90 74-163 164-163s163 73 163 163c0 91-73 164-163 164zm0-268c-58 0-105 47-105 104 0 58 47 105 105 105 57 0 104-47 104-105 0-57-47-104-104-104zm-903 486h-136c-16 0-29-13-29-30v-87c-30-11-59-27-83-48l-76 44c-14 8-32 3-40-11l-68-118c-8-14-3-32 11-40l75-43c-5-32-5-65 0-97l-75-43c-14-8-19-26-11-40l68-118c8-14 26-19 40-11l76 44c24-21 53-37 83-48v-87c0-17 13-30 29-30h136c16 0 29 13 29 30v87c30 11 59 27 83 48l76-44c14-8 32-3 40 11l68 118c8 14 3 32-11 40l-75 43c5 32 5 65 0 97l75 43c14 8 19 26 11 40l-68 118c-8 14-26 19-40 11l-76-44c-24 21-53 37-83 48v87c0 17-13 30-29 30zm-107-59h78v-79c0-41 49-18 117-84 10-9 24-11 35-5l69 40 39-67c-120-69-76-36-76-128 0-91-44-58 76-127l-39-67-69 39c-35 21-41-34-131-60-13-3-21-15-21-28v-79h-78v79c0 41-50 18-117 84-10 9-24 11-35 4l-69-39-39 67c120 69 76 36 76 127 0 92 44 59-76 128l39 67 69-40c35-20 41 35 131 60 13 4 21 16 21 29zm39-427c-58 0-105 47-105 104 0 58 47 105 105 105s105-47 105-105c0-57-47-104-105-104z" fill="#fff"/></g></svg>