<svg id="Layer_1" enable-background="new 0 0 512 512" height="512" viewBox="0 0 512 512" width="512" xmlns="http://www.w3.org/2000/svg"><circle cx="256" cy="256" fill="#ec407a" r="256"/><g fill="#fffffe"><ellipse cx="126" cy="313" rx="10.1" ry="10.1"/><path d="m262.8 271.4c-2.9 0-5.7-.5-8.5-1.6l-74.9-29.8v76.6c0 19 38.2 35 83.3 35s83.3-16 83.3-35v-76.5l-74.8 29.7c-2.7 1.2-5.6 1.6-8.4 1.6z"/><path d="m395.8 212.2-127-50.6c-2-.8-4-1.2-6.1-1.2s-4.1.4-6 1.2l-127 50.5c-.1.1-.2.1-.3.3v.2.3c.1.1.2.1.3.2l47.2 18.8c.3.1.5.2.8.3l79 31.5c3.9 1.6 8.2 1.6 12.1 0l78.8-31.4c.3-.2.7-.3 1.1-.4l47.1-18.8c.1-.1.3-.1.3-.5.1-.3-.2-.4-.3-.4z"/><path d="m129.3 296.5v-76.3l-2.2-.8c-2.7-1.1-4.5-3.7-4.5-6.6v83.8c1.1-.2 2.2-.3 3.3-.3 1.2-.2 2.3 0 3.4.2z"/></g></svg>