<?xml version="1.0" encoding="utf-8"?>
<!-- Generator: Adobe Illustrator 27.5.0, SVG Export Plug-In . SVG Version: 6.00 Build 0)  -->
<svg version="1.1" id="illustration" xmlns="http://www.w3.org/2000/svg" xmlns:xlink="http://www.w3.org/1999/xlink" x="0px"
	 y="0px" viewBox="0 0 4947 3387" style="enable-background:new 0 0 4947 3387;" xml:space="preserve">
<rect id="background" style="fill:#FFFFFF;" width="4947" height="3387"/>
<path id="die" style="fill:#F7F7FC;" d="M960.302,3164.479c1051.093-0.873,2102.186-1.746,3153.279-2.619
	c160.378-179.753,508.037-622.937,557.401-1265.827c12.587-163.925,78.225-1018.749-455.966-1386.401
	c-262.255-180.494-569.711-175.18-841.415-170.484c-481.37,8.32-510.438,166.72-980.219,196.872
	c-568.027,36.457-707.901-183.419-1131.949-62.223C929.909,568.55,723.54,786.363,659.5,855.624
	c-432.41,467.667-518.109,1230.198-205.188,1787.151C606.837,2914.248,820.34,3076.849,960.302,3164.479z"/>
<g id="decor">
	<path style="fill:#DBDBF1;" d="M3587.323,583.987c-1.906-11.663-5.012-22.834-9.139-33.433l24.321-9.446
		c-4.844-12.472-11.026-24.466-18.375-35.65l-21.845,14.356c-6.395-9.714-13.752-18.68-21.938-26.768l18.387-18.592
		c-9.499-9.395-20.018-17.826-31.262-25.059l-14.142,21.985c-9.703-6.245-20.071-11.464-30.921-15.591l9.282-24.45
		c-12.523-4.754-25.571-8.193-38.782-10.22l-3.962,25.807c-11.274-1.742-22.846-2.359-34.584-1.682l-1.512-26.007
		c-13.27,0.773-26.708,2.963-39.518,6.439l6.826,25.154c-11.342,3.085-22.119,7.337-32.257,12.567l-11.951-23.22
		c-11.882,6.116-23.162,13.517-33.527,22l16.562,20.238c-8.976,7.356-17.156,15.589-24.375,24.588l-20.38-16.353
		c-8.368,10.429-15.667,21.763-21.694,33.686l23.341,11.798c-5.197,10.271-9.337,21.108-12.319,32.354l-25.269-6.676
		c-3.419,12.94-5.473,26.278-6.107,39.644l26.051,1.234c-0.544,11.294,0.047,22.806,1.917,34.405
		c0.01,0.061,0.024,0.121,0.034,0.182l-25.711,4.174c2.151,13.247,5.677,26.256,10.482,38.667l24.328-9.417
		c4.235,10.912,9.584,21.19,15.867,30.756l-21.86,14.331c7.321,11.167,15.854,21.608,25.362,31.033l18.409-18.572
		c8.231,8.152,17.273,15.432,26.99,21.7l-14.165,21.966c11.247,7.253,23.278,13.341,35.759,18.095l9.31-24.439
		c10.726,4.094,21.923,7.103,33.451,8.898l-3.989,25.807c13.2,2.041,26.677,2.688,40.055,1.926l-1.482-26.013
		c5.689-0.321,11.414-0.932,17.16-1.858c5.808-0.937,11.492-2.177,17.05-3.681l6.798,25.157c12.935-3.495,25.518-8.36,37.397-14.457
		l-11.926-23.233c10.373-5.337,20.05-11.721,28.937-18.987l16.54,20.257c10.343-8.446,19.84-18.015,28.226-28.441l-20.365-16.379
		c7.245-9.012,13.527-18.775,18.768-29.107l23.327,11.823c6.055-11.947,10.863-24.55,14.29-37.461l-25.264-6.704
		c2.945-11.06,4.784-22.504,5.361-34.198l26.054,1.264c0.645-13.293-0.112-26.751-2.237-39.931l-0.084-0.522L3587.323,583.987z
		 M3437.542,696.115c-47.092,7.593-91.58-24.541-99.174-71.632c-7.593-47.091,24.541-91.579,71.632-99.173
		c47.09-7.593,91.579,24.54,99.172,71.631C3516.766,644.033,3484.632,688.522,3437.542,696.115z"/>
	<path style="fill:#DBDBF1;" d="M817.645,2552.97c-1.583-9.692-4.165-18.976-7.594-27.784l20.211-7.849
		c-4.025-10.364-9.162-20.331-15.27-29.625l-18.154,11.93c-5.314-8.073-11.428-15.523-18.231-22.245l15.28-15.45
		c-7.894-7.807-16.635-14.813-25.979-20.825l-11.753,18.27c-8.063-5.189-16.679-9.527-25.696-12.957l7.714-20.318
		c-10.407-3.95-21.25-6.809-32.228-8.493l-3.292,21.446c-9.369-1.447-18.985-1.96-28.74-1.398l-1.257-21.612
		c-11.027,0.642-22.195,2.463-32.84,5.351l5.672,20.903c-9.425,2.564-18.381,6.097-26.806,10.443l-9.932-19.296
		c-9.874,5.082-19.248,11.233-27.862,18.282l13.763,16.818c-7.46,6.113-14.257,12.954-20.256,20.433l-16.936-13.589
		c-6.954,8.667-13.02,18.085-18.028,27.994l19.397,9.804c-4.319,8.535-7.759,17.541-10.237,26.887l-20.999-5.548
		c-2.841,10.753-4.549,21.838-5.075,32.945l21.649,1.026c-0.452,9.386,0.039,18.953,1.593,28.591
		c0.008,0.051,0.02,0.101,0.028,0.152l-21.366,3.469c1.788,11.008,4.718,21.819,8.711,32.133l20.217-7.826
		c3.519,9.068,7.965,17.609,13.186,25.559l-18.166,11.909c6.084,9.28,13.174,17.956,21.076,25.788l15.298-15.433
		c6.841,6.774,14.355,12.824,22.429,18.033l-11.771,18.254c9.346,6.028,19.344,11.087,29.716,15.038l7.736-20.309
		c8.913,3.402,18.218,5.903,27.799,7.394l-3.315,21.446c10.97,1.696,22.169,2.234,33.286,1.601l-1.232-21.617
		c4.727-0.267,9.485-0.774,14.26-1.544c4.827-0.778,9.55-1.809,14.169-3.059l5.649,20.906c10.749-2.905,21.206-6.947,31.078-12.014
		l-9.91-19.307c8.62-4.435,16.662-9.74,24.047-15.779l13.745,16.833c8.595-7.019,16.487-14.971,23.456-23.635l-16.924-13.611
		c6.021-7.489,11.241-15.602,15.597-24.189l19.385,9.825c5.032-9.928,9.027-20.402,11.875-31.13l-20.995-5.571
		c2.448-9.191,3.976-18.701,4.455-28.419l21.652,1.051c0.536-11.047-0.093-22.23-1.859-33.184l-0.07-0.434L817.645,2552.97z
		 M693.173,2646.15c-39.134,6.31-76.105-20.394-82.415-59.527c-6.31-39.133,20.394-76.104,59.527-82.414
		c39.133-6.31,76.104,20.393,82.414,59.527C759.01,2602.869,732.306,2639.84,693.173,2646.15z"/>
	<path style="fill:#DBDBF1;" d="M1066.289,2404.397c-0.791-4.84-2.08-9.477-3.793-13.875l10.094-3.92
		c-2.01-5.176-4.576-10.154-7.626-14.795l-9.066,5.958c-2.654-4.031-5.707-7.752-9.105-11.109l7.631-7.716
		c-3.943-3.899-8.308-7.398-12.974-10.4l-5.87,9.125c-4.027-2.592-8.33-4.758-12.833-6.471l3.852-10.147
		c-5.197-1.973-10.613-3.4-16.095-4.241l-1.644,10.71c-4.679-0.723-9.482-0.979-14.353-0.698l-0.628-10.793
		c-5.507,0.321-11.084,1.23-16.401,2.672l2.833,10.439c-4.707,1.281-9.18,3.045-13.387,5.216l-4.96-9.637
		c-4.931,2.538-9.613,5.61-13.914,9.131l6.873,8.399c-3.725,3.053-7.12,6.47-10.116,10.205l-8.458-6.787
		c-3.473,4.328-6.502,9.032-9.003,13.98l9.687,4.896c-2.157,4.263-3.875,8.76-5.112,13.428l-10.487-2.771
		c-1.419,5.37-2.272,10.906-2.535,16.453l10.812,0.512c-0.226,4.688,0.02,9.465,0.796,14.279c0.004,0.025,0.01,0.05,0.014,0.076
		l-10.67,1.732c0.893,5.498,2.356,10.897,4.35,16.048l10.097-3.908c1.757,4.529,3.978,8.794,6.585,12.764l-9.072,5.948
		c3.038,4.634,6.58,8.968,10.526,12.879l7.64-7.708c3.416,3.383,7.169,6.405,11.201,9.006l-5.879,9.116
		c4.668,3.01,9.661,5.537,14.841,7.51l3.864-10.143c4.451,1.699,9.099,2.948,13.883,3.692l-1.656,10.71
		c5.478,0.847,11.071,1.115,16.624,0.799l-0.615-10.796c2.361-0.133,4.737-0.386,7.122-0.771c2.411-0.388,4.77-0.903,7.076-1.528
		l2.821,10.441c5.368-1.451,10.59-3.47,15.521-6l-4.949-9.642c4.305-2.215,8.321-4.865,12.009-7.88l6.865,8.407
		c4.293-3.505,8.234-7.477,11.714-11.803l-8.452-6.798c3.007-3.74,5.614-7.792,7.789-12.08l9.681,4.907
		c2.513-4.958,4.508-10.189,5.93-15.547l-10.485-2.782c1.222-4.59,1.985-9.34,2.225-14.193l10.813,0.525
		c0.268-5.517-0.046-11.102-0.928-16.573l-0.035-0.217L1066.289,2404.397z M1004.126,2450.932
		c-19.544,3.152-38.008-10.185-41.159-29.729c-3.151-19.544,10.185-38.007,29.729-41.159c19.544-3.151,38.007,10.185,41.159,29.729
		C1037.006,2429.317,1023.67,2447.781,1004.126,2450.932z"/>
	<path style="fill:#DBDBF1;" d="M4404.711,2231.876c-2.059-12.599-5.415-24.668-9.873-36.118l26.274-10.204
		c-5.232-13.473-11.911-26.43-19.851-38.512l-23.6,15.508c-6.909-10.494-14.856-20.179-23.699-28.918l19.864-20.084
		c-10.262-10.149-21.625-19.257-33.772-27.072l-15.278,23.75c-10.482-6.746-21.682-12.384-33.404-16.844l10.028-26.413
		c-13.529-5.135-27.625-8.851-41.896-11.041l-4.28,27.879c-12.179-1.881-24.68-2.548-37.361-1.817l-1.634-28.095
		c-14.335,0.835-28.853,3.201-42.691,6.956l7.374,27.173c-12.252,3.333-23.896,7.926-34.847,13.576l-12.911-25.085
		c-12.836,6.607-25.021,14.602-36.22,23.767l17.892,21.863c-9.697,7.947-18.534,16.84-26.333,26.562l-22.017-17.666
		c-9.04,11.266-16.925,23.51-23.436,36.391l25.216,12.745c-5.614,11.096-10.087,22.803-13.308,34.952l-27.298-7.212
		c-3.693,13.979-5.913,28.389-6.598,42.827l28.143,1.334c-0.588,12.201,0.051,24.638,2.071,37.168
		c0.011,0.066,0.026,0.131,0.037,0.197l-27.775,4.51c2.324,14.31,6.133,28.364,11.324,41.772l26.281-10.174
		c4.574,11.788,10.354,22.892,17.141,33.226l-23.615,15.481c7.908,12.063,17.126,23.343,27.398,33.524l19.887-20.063
		c8.893,8.806,18.661,16.671,29.158,23.442l-15.302,23.73c12.149,7.835,25.147,14.412,38.63,19.548l10.057-26.401
		c11.587,4.423,23.684,7.674,36.138,9.612l-4.31,27.879c14.26,2.204,28.819,2.904,43.271,2.081l-1.601-28.102
		c6.146-0.347,12.33-1.006,18.538-2.007c6.274-1.011,12.415-2.351,18.419-3.977l7.344,27.178c13.974-3.776,27.566-9.031,40.4-15.618
		l-12.883-25.098c11.206-5.766,21.66-12.662,31.26-20.512l17.869,21.883c11.174-9.124,21.433-19.461,30.492-30.725l-22.001-17.694
		c7.827-9.736,14.613-20.283,20.276-31.445l25.2,12.772c6.542-12.906,11.735-26.521,15.437-40.469l-27.293-7.243
		c3.182-11.949,5.167-24.311,5.791-36.944l28.146,1.366c0.697-14.36-0.12-28.899-2.416-43.138l-0.091-0.564L4404.711,2231.876z
		 M4242.901,2353.007c-50.873,8.203-98.934-26.511-107.137-77.384c-8.203-50.872,26.511-98.933,77.384-107.136
		c50.872-8.203,98.933,26.511,107.136,77.383C4328.487,2296.743,4293.773,2344.804,4242.901,2353.007z"/>
	<g>
		<circle style="fill:#DBDBF1;" cx="2685.729" cy="524.303" r="17.102"/>
		<circle style="fill:#DBDBF1;" cx="2732.37" cy="570.945" r="17.102"/>
		<circle style="fill:#DBDBF1;" cx="2779.012" cy="617.587" r="17.102"/>
		<circle style="fill:#DBDBF1;" cx="2825.654" cy="664.228" r="17.102"/>
		<circle style="fill:#DBDBF1;" cx="2638.348" cy="571.683" r="17.102"/>
		<circle style="fill:#DBDBF1;" cx="2684.99" cy="618.325" r="17.102"/>
		<circle style="fill:#DBDBF1;" cx="2731.632" cy="664.967" r="17.102"/>
		<circle style="fill:#DBDBF1;" cx="2778.274" cy="711.608" r="17.102"/>
		<circle style="fill:#DBDBF1;" cx="2590.969" cy="619.063" r="17.102"/>
		<circle style="fill:#DBDBF1;" cx="2637.61" cy="665.705" r="17.102"/>
		<circle style="fill:#DBDBF1;" cx="2684.252" cy="712.347" r="17.102"/>
		<circle style="fill:#DBDBF1;" cx="2730.894" cy="758.988" r="17.102"/>
		<path style="fill:#DBDBF1;" d="M2555.681,678.536c-6.679,6.679-17.507,6.679-24.186,0c-6.679-6.679-6.679-17.507,0-24.186
			s17.507-6.679,24.186,0S2562.36,671.857,2555.681,678.536z"/>
		<circle style="fill:#DBDBF1;" cx="2590.23" cy="713.085" r="17.102"/>
		<circle style="fill:#DBDBF1;" cx="2636.872" cy="759.727" r="17.102"/>
		<circle style="fill:#DBDBF1;" cx="2683.514" cy="806.368" r="17.102"/>
	</g>
</g>
<g id="window">
	<g>
		<g>
			<path style="fill:#C2C2D5;" d="M1793.121,1262.713H999.027c-23.081,0-41.856-18.775-41.856-41.856V703.472
				c0-23.081,18.775-41.856,41.856-41.856h794.094c23.081,0,41.856,18.775,41.856,41.856v517.385
				C1834.977,1243.938,1816.201,1262.713,1793.121,1262.713z M972.846,765.477v455.38c0,14.435,11.745,26.18,26.181,26.18h794.094
				c14.436,0,26.181-11.745,26.181-26.18v-455.38H972.846z M972.846,749.802h846.455v-46.33c0-14.435-11.745-26.181-26.181-26.181
				H999.027c-14.436,0-26.181,11.745-26.181,26.181V749.802z M1292.413,1075.289h-25.92v-15.675h25.92V1075.289z M1243.711,1075.289
				h-25.924v-15.675h25.924V1075.289z M1120.056,1075.289h-75.354v-15.675h75.354V1075.289z M1394.499,1019.162h-132.154v-15.675
				h132.154V1019.162z M1120.056,1019.162h-75.354v-15.675h75.354V1019.162z M1339.627,963.035h-30.375V947.36h30.375V963.035z
				 M1295.069,963.035h-77.283V947.36h77.283V963.035z M1120.056,963.035h-75.354V947.36h75.354V963.035z M1548.724,906.908h-75.35
				v-15.675h75.35V906.908z M1450.882,906.908h-30.371v-15.675h30.371V906.908z M1378.954,906.908h-199.005v-15.675h199.005V906.908
				z M1120.056,906.908h-75.354v-15.675h75.354V906.908z"/>
		</g>
		<path style="fill:#DBDBF1;" d="M1199.911,346.751h738.151c17.564,0,31.803,14.238,31.803,31.803v436.162
			c0,17.564-14.239,31.803-31.803,31.803h-738.151c-17.564,0-31.802-14.238-31.802-31.803V378.553
			C1168.108,360.989,1182.347,346.751,1199.911,346.751z"/>
		<g style="opacity:0.48;">
			<g>
				<rect x="1243.711" y="421.67" style="fill:#FFFFFF;" width="22.216" height="15.675"/>
			</g>
			<g>
				<rect x="1323.891" y="421.67" style="fill:#FFFFFF;" width="110.13" height="15.675"/>
			</g>
			<g>
				<rect x="1243.711" y="473.798" style="fill:#FFFFFF;" width="22.216" height="15.675"/>
			</g>
			<g>
				<rect x="1365.444" y="473.798" style="fill:#FFFFFF;" width="246.326" height="15.675"/>
			</g>
			<g>
				<rect x="1637.396" y="473.798" style="fill:#FFFFFF;" width="43.456" height="15.675"/>
			</g>
			<g>
				<rect x="1743.66" y="473.798" style="fill:#FFFFFF;" width="43.456" height="15.675"/>
			</g>
			<g>
				<rect x="1805.413" y="473.798" style="fill:#FFFFFF;" width="94.562" height="15.675"/>
			</g>
			<g>
				<rect x="1708.88" y="473.798" style="fill:#FFFFFF;" width="10.765" height="15.675"/>
			</g>
			<g>
				<rect x="1243.711" y="525.922" style="fill:#FFFFFF;" width="22.216" height="15.675"/>
			</g>
			<g>
				<rect x="1365.444" y="525.922" style="fill:#FFFFFF;" width="110.13" height="15.675"/>
			</g>
			<g>
				<rect x="1501.012" y="525.922" style="fill:#FFFFFF;" width="47.646" height="15.675"/>
			</g>
			<g>
				<rect x="1573.144" y="525.922" style="fill:#FFFFFF;" width="107.707" height="15.675"/>
			</g>
			<g>
				<rect x="1243.711" y="578.049" style="fill:#FFFFFF;" width="22.216" height="15.675"/>
			</g>
			<g>
				<rect x="1243.711" y="578.049" style="fill:#FFFFFF;" width="22.216" height="15.675"/>
			</g>
			<g>
				<rect x="1501.012" y="578.049" style="fill:#FFFFFF;" width="79.525" height="15.675"/>
			</g>
			<g>
				<rect x="1243.711" y="630.173" style="fill:#FFFFFF;" width="22.216" height="15.675"/>
			</g>
			<g>
				<rect x="1323.891" y="630.173" style="fill:#FFFFFF;" width="55.063" height="15.675"/>
			</g>
			<g>
				<rect x="1406.489" y="630.173" style="fill:#FFFFFF;" width="72.292" height="15.675"/>
			</g>
			<g>
				<rect x="1497.258" y="630.173" style="fill:#FFFFFF;" width="17.141" height="15.675"/>
			</g>
			<g>
				<rect x="1536.998" y="630.173" style="fill:#FFFFFF;" width="194.887" height="15.675"/>
			</g>
			<g>
				<rect x="1243.711" y="682.301" style="fill:#FFFFFF;" width="22.216" height="15.675"/>
			</g>
			<g>
				<rect x="1406.489" y="682.301" style="fill:#FFFFFF;" width="142.235" height="15.675"/>
			</g>
			<g>
				<rect x="1565.302" y="682.301" style="fill:#FFFFFF;" width="65.308" height="15.675"/>
			</g>
			<g>
				<rect x="1676.228" y="682.301" style="fill:#FFFFFF;" width="55.656" height="15.675"/>
			</g>
			<g>
				<rect x="1243.711" y="734.429" style="fill:#FFFFFF;" width="22.216" height="15.675"/>
			</g>
			<g>
				<rect x="1485.712" y="734.429" style="fill:#FFFFFF;" width="71.362" height="15.675"/>
			</g>
			<g>
				<rect x="1580.538" y="734.429" style="fill:#FFFFFF;" width="31.232" height="15.675"/>
			</g>
			<g>
				<rect x="1243.711" y="786.553" style="fill:#FFFFFF;" width="22.216" height="15.675"/>
			</g>
			<g>
				<rect x="1243.711" y="786.553" style="fill:#FFFFFF;" width="22.216" height="15.675"/>
			</g>
		</g>
	</g>
	<g>
		<path style="fill:#61616B;" d="M1854.463,1244.393c0-31.584-24.137-57.192-53.912-57.192H530.113
			c-29.775,0-53.912,25.607-53.912,57.192v92h1378.261V1244.393z"/>
		<path style="fill:#DBDBF1;" d="M884.957,1336.391H476.201v872.104c0,53.088,43.037,96.125,96.125,96.125h1186.011
			c53.088,0,96.125-43.037,96.125-96.125v-7.403v-864.702H884.957z"/>
		<path style="fill:#FFFFFF;" d="M1329.411,1452.773h408.15c0.434,0,0.785,0.352,0.785,0.785v247.281
			c0,0.434-0.351,0.785-0.785,0.785h-408.15c-0.433,0-0.785-0.351-0.785-0.785v-247.281
			C1328.626,1453.125,1328.977,1452.773,1329.411,1452.773z M1065.377,2120.893h203.29c0.434,0,0.785-0.351,0.785-0.785v-666.55
			c0-0.434-0.352-0.785-0.785-0.785h-203.29c-0.434,0-0.785,0.352-0.785,0.785v666.55
			C1064.592,2120.541,1064.944,2120.893,1065.377,2120.893z M1329.411,2120.893h408.15c0.434,0,0.785-0.351,0.785-0.785v-361.585
			c0-0.434-0.351-0.785-0.785-0.785h-408.15c-0.433,0-0.785,0.351-0.785,0.785v361.585
			C1328.626,2120.541,1328.977,2120.893,1329.411,2120.893z"/>
		<path style="fill:#BABBDD;" d="M579.025,2120.893h420.057c1.028,0,1.861-0.833,1.861-1.861v-666.421
			c0-1.028-0.833-1.861-1.861-1.861H579.025c-1.028,0-1.861,0.833-1.861,1.861v666.421
			C577.164,2120.06,577.997,2120.893,579.025,2120.893z"/>
		<path style="fill:#FFFFFF;" d="M647.806,1553.211h-15.086v-42.346h15.086V1553.211z M647.806,1594.905h-15.086v42.346h15.086
			V1594.905z M647.806,1678.945h-15.086v42.346h15.086V1678.945z M647.806,1762.985h-15.086v42.346h15.086V1762.985z
			 M647.806,1847.025h-15.086v42.346h15.086V1847.025z M647.806,1931.064h-15.086v42.346h15.086V1931.064z M647.806,2015.104
			h-15.086v42.346h15.086V2015.104z"/>
		<path style="fill:#61616B;" d="M789.054,1553.211H681.818v-42.346h107.236V1553.211z M857.595,1553.211h-42.346v-42.346h42.346
			V1553.211z M960.12,1553.211h-82.443v-42.346h82.443V1553.211z M833.099,1594.905H732.245v42.346h100.854V1594.905z
			 M815.249,1678.945h-38.425v42.346h38.425V1678.945z M782.672,1762.985H681.818v42.346h100.854V1762.985z M883.304,1847.025
			H725.223v42.346h158.081V1847.025z M874.276,1762.985h-70.012v42.346h70.012V1762.985z M918.899,1762.985h-18.796v42.346h18.796
			V1762.985z M960.12,1762.985h-18.796v42.346h18.796V1762.985z M782.672,1931.064H681.818v42.346h100.854V1931.064z
			 M782.672,2015.104H681.818v42.346h100.854V2015.104z"/>
	</g>
	<g>
		<path style="fill:#61616B;" d="M4470.798,768.751c0-32.529-27.249-58.901-60.862-58.901H2975.727
			c-33.613,0-60.862,26.373-60.862,58.901v94.75h1555.932V768.751z"/>
		<path style="fill:#DBDBF1;" d="M4470.799,863.499v886.499c0,44.584-37.999,80.727-84.873,80.727H2999.742
			c-46.874,0-84.873-36.143-84.873-80.727V863.499H4470.799z"/>
		<rect x="3277.607" y="940.325" style="fill:#FC8123;" width="219.189" height="44.61"/>
		<path style="fill:#FFFFFF;" d="M3689.524,984.936h-131.425v-44.61h131.425V984.936z M4287.993,940.325h-150.169v44.61h150.169
			V940.325z M3785.005,940.325h-39.692v44.61h39.692V940.325z M4106.292,940.325h-287.989v44.61h287.989V940.325z"/>
		<rect x="3277.607" y="1560.064" style="fill:#FC8123;" width="219.189" height="44.61"/>
		<path style="fill:#FFFFFF;" d="M3376.314,1693.208h-98.706v-44.61h98.706V1693.208z M3492.785,1648.598h-98.706v44.61h98.706
			V1648.598z"/>
		<path style="fill:#61616B;" d="M3689.524,1604.674h-131.425v-44.61h131.425V1604.674z M3785.005,1560.064h-39.692v44.61h39.692
			V1560.064z M4106.292,1560.064h-287.989v44.61h287.989V1560.064z"/>
		<path style="fill:#61616B;" d="M3952.153,1073.47h-228.891v-44.61h228.891V1073.47z M4044.548,1028.859h-61.082v44.61h61.082
			V1028.859z"/>
		<rect x="3354.346" y="1028.859" style="fill:#FC8123;" width="335.178" height="44.61"/>
		<path style="fill:#61616B;" d="M4042.122,1427.606h-228.891v-44.61h228.891V1427.606z M4203.537,1382.996h-130.102v44.61h130.102
			V1382.996z"/>
		<rect x="3354.346" y="1382.996" style="fill:#FC8123;" width="422.28" height="44.61"/>
		<path style="fill:#61616B;" d="M3952.153,1250.538h-228.891v-44.61h228.891V1250.538z M3689.524,1205.928h-138.555v44.61h138.555
			V1205.928z"/>
		<path style="fill:#FC8123;" d="M3045.849,984.936h-28.667v-44.61h28.667V984.936z M3045.849,1028.859h-28.667v44.61h28.667
			V1028.859z M3045.849,1117.394h-28.667v44.61h28.667V1117.394z M3045.849,1205.928h-28.667v44.61h28.667V1205.928z
			 M3045.849,1294.462h-28.667v44.61h28.667V1294.462z M3045.849,1382.996h-28.667v44.61h28.667V1382.996z M3045.849,1471.53
			h-28.667v44.61h28.667V1471.53z M3045.849,1560.064h-28.667v44.61h28.667V1560.064z M3045.849,1648.598h-28.667v44.61h28.667
			V1648.598z"/>
		<path style="fill:#61616B;" d="M3153.018,984.936h-78.502v-44.61h78.502V984.936z M3153.018,1028.859h-78.502v44.61h78.502
			V1028.859z M3153.018,1117.394h-78.502v44.61h78.502V1117.394z M3153.018,1205.928h-78.502v44.61h78.502V1205.928z
			 M3153.018,1294.462h-78.502v44.61h78.502V1294.462z M3153.018,1382.996h-78.502v44.61h78.502V1382.996z M3153.018,1471.53
			h-78.502v44.61h78.502V1471.53z M3153.018,1560.064h-78.502v44.61h78.502V1560.064z M3153.018,1648.598h-78.502v44.61h78.502
			V1648.598z"/>
		<rect x="3443.432" y="1117.394" style="fill:#FC8123;" width="78.502" height="44.61"/>
		<rect x="3550.969" y="1117.394" style="fill:#FC8123;" width="39.251" height="44.61"/>
		<rect x="3649.868" y="1294.462" style="fill:#61616B;" width="105.601" height="44.61"/>
		<rect x="3623.811" y="1117.394" style="fill:#61616B;" width="178.394" height="44.61"/>
		<rect x="3443.432" y="1471.53" style="fill:#FC8123;" width="78.502" height="44.61"/>
		<g>
			<path style="fill:#FFFFFF;" d="M3035.91,787.81c-10.713,0-19.425-8.713-19.425-19.425c0-10.713,8.713-19.43,19.425-19.43
				s19.43,8.718,19.43,19.43C3055.34,779.097,3046.622,787.81,3035.91,787.81z M3035.91,756.448
				c-6.581,0-11.932,5.356-11.932,11.937c0,6.581,5.352,11.932,11.932,11.932s11.937-5.351,11.937-11.932
				C3047.847,761.804,3042.49,756.448,3035.91,756.448z"/>
		</g>
		<g>
			<path style="fill:#FFFFFF;" d="M3094.229,787.81c-10.713,0-19.43-8.713-19.43-19.425c0-10.713,8.717-19.43,19.43-19.43
				c10.713,0,19.425,8.718,19.425,19.43C3113.655,779.097,3104.942,787.81,3094.229,787.81z M3094.229,756.448
				c-6.581,0-11.937,5.356-11.937,11.937c0,6.581,5.356,11.932,11.937,11.932s11.932-5.351,11.932-11.932
				C3106.162,761.804,3100.81,756.448,3094.229,756.448z"/>
		</g>
		<g>
			<path style="fill:#FFFFFF;" d="M3152.544,787.81c-10.713,0-19.425-8.713-19.425-19.425c0-10.713,8.713-19.43,19.425-19.43
				s19.43,8.718,19.43,19.43C3171.975,779.097,3163.257,787.81,3152.544,787.81z M3152.544,756.448
				c-6.581,0-11.932,5.356-11.932,11.937c0,6.581,5.351,11.932,11.932,11.932s11.937-5.351,11.937-11.932
				C3164.482,761.804,3159.125,756.448,3152.544,756.448z"/>
		</g>
	</g>
</g>
<g id="man">
	<g>
		<g>
			<path style="fill:#468AF8;" d="M2345.692,2921.775l13.486,214.202c0,0-662.964,6.914-740.554,0
				c-77.546-6.871-237.846,4.695-210.916-172.719c12.42-82.028,162.177-753.187,232.725-863.723
				c50.019-78.443,252.613-149.886,388.842-184.797c4.353-1.11,8.663-2.219,12.889-3.244
				c49.762-12.291,89.026-19.248,106.055-19.248c63.463,0,285.731-62.865,370.362-49.037c7.084,1.152,16.261,2.945,27.101,5.335
				c4.865,1.024,10.072,2.219,15.577,3.457c128.548,29.747,423.454,116.896,454.438,171.524
				c35.252,62.182,268.02,863.723,268.02,863.723L2345.692,2921.775z"/>
			
				<rect x="1919.48" y="2490.525" transform="matrix(1 -0.0014 0.0014 1 -3.4892 3.2485)" style="fill:#FFFFFF;" width="803.024" height="11.941"/>
			<polygon style="fill:#FFFFFF;" points="2704.574,2573.52 2704.574,2585.47 1894.966,2585.47 1896.802,2573.52 			"/>
			<polygon style="fill:#FFFFFF;" points="2686.692,2657.084 2686.692,2669.034 1882.248,2669.034 1884.084,2657.084 			"/>
			<path style="opacity:0.88;fill:#182051;" d="M1994.62,2782.132h-129.615l17.242-113.097l1.836-11.95l10.882-71.614l1.836-11.95
				l35.551-233.152c-10.286,97.733-13.188,173.871-11.353,233.152c0.128,4.054,0.256,8.024,0.427,11.95
				c1.194,27.57,3.413,51.257,6.402,71.614c0.597,4.14,1.194,8.109,1.878,11.95
				C1947.589,2773.51,1986.042,2781.662,1994.62,2782.132z"/>
			<path style="opacity:0.88;fill:#182051;" d="M1996.371,2782.132c0,0-0.598,0.085-1.75,0H1996.371z"/>
			<path style="fill:#FFFFFF;" d="M2556.139,2010.551c-34.356,61.414-105.671,104.093-186.078,111.39
				c-9.004,0.811-18.181,1.238-27.442,1.238c-58.043,0-121.12-15.962-187.955-47.629c-32.308-15.279-72.81-37.472-99.526-73.364
				c-19.973-26.887-28.936-58.555-25.862-87.448c4.353-1.11,8.663-2.219,12.889-3.244c-4.61,29.875,6.657,61.542,22.875,83.351
				c25.052,33.716,63.889,54.927,94.917,69.608c75.455,35.722,145.789,50.958,208.995,45.239
				c76.438-6.914,144.039-47.202,176.475-105.159c27.442-49.08,25.948-111.006,0.256-155.989c4.865,1.024,10.072,2.219,15.577,3.457
				C2584.05,1899.63,2583.751,1961.172,2556.139,2010.551z"/>
			<path style="fill:#182051;" d="M1735.147,2849.823l-5.218-3.28c28.983-46.088,84.915-74.302,139.225-70.217l-0.467,6.144
				C1816.686,2778.589,1762.947,2805.615,1735.147,2849.823z"/>
			
				<rect x="1700.64" y="2746.234" transform="matrix(1 -0.0081 0.0081 1 -22.2571 14.4006)" style="fill:#182051;" width="124.83" height="6.16"/>
			<path style="fill:#182051;" d="M1932.668,2269.211c-7.269-67.831-57.674-129.873-122.575-150.877l1.901-5.864
				c67.139,21.731,119.283,85.913,126.801,156.082L1932.668,2269.211z"/>
			<path style="fill:#182051;" d="M2870.436,2187.48l-6.143-0.492c4.493-55.969,41.953-108.959,93.217-131.861l2.517,5.627
				C2910.755,2082.764,2874.754,2133.69,2870.436,2187.48z"/>
		</g>
		<g>
			<g>
				<path style="fill:#1C1E33;" d="M2643.305,1065.024c2.028,34.709-19.021,69.718-50.713,84.13
					c5.277-2.373,18.515,34.414,19.391,38.301c3.632,15.305,3.495,31.524-0.261,46.733c-7.498,30.138-33.245,59.276-65.75,61.469
					c-38.802,2.656-53.749-33.255-81.568-52.949c-29.699-21.026-64.548-34.838-100.676-39.518
					c-52.086-6.756-106.481,5.664-150.503,34.366c-27.82,18.174-51.269,42.269-77.583,62.614
					c-18.777,14.497-70.652,50.995-94.96,34.895c-12.995-8.619-23.33-33.397-29.834-47.033c-4.923-10.248-9.078-20.949-12.422-31.83
					c-2.066-6.553-3.805-13.156-5.225-19.864c-4.356-20.388-6-41.305-4.715-62.056c0.977-15.118,3.62-30.66,12.15-43.139
					c8.468-12.525,24.119-21.181,38.796-17.623c-0.811-52.992,29.031-105.323,74.983-131.641
					c45.944-26.372,106.159-25.609,151.478,1.845c-1.068-42.284,23.572-82.648,58.01-107.199
					c34.492-24.56,77.495-34.786,119.738-36.126c41.861-1.282,86.261,6.709,117.892,34.141
					c18.427,15.996,30.744,39.855,33.138,63.84c1.747,17.214-1.581,34.48-11.49,48.902
					C2616.325,998.005,2641.268,1030.26,2643.305,1065.024z"/>
				<path style="opacity:0.11;fill:#FFFFFF;" d="M2594.669,938.38c-3.788-4.669-8.483-8.697-14.106-11.856
					c-17.402-9.675-39.061-16.518-58.99-16.812c-43.106-0.649-86.342,5.87-127.071,19.992
					c-40.784,14.131-78.255,44.398-90.039,85.916c-51.441-11.659-107.109-15.185-155.56,5.763
					c-48.46,20.893-86.893,71.47-80.201,123.839c-43.761,16.933-72.707,64.547-70.277,110.979
					c-2.066-6.553-3.805-13.156-5.225-19.864c-4.356-20.388-6-41.305-4.715-62.056c0.977-15.118,3.62-30.66,12.15-43.139
					c8.468-12.525,24.119-21.181,38.796-17.623c-0.811-52.992,29.031-105.323,74.983-131.641
					c45.944-26.372,106.159-25.609,151.478,1.845c-1.068-42.284,23.572-82.648,58.01-107.199
					c34.492-24.56,77.495-34.786,119.738-36.126c41.861-1.282,86.261,6.709,117.892,34.141
					C2579.958,890.536,2592.275,914.395,2594.669,938.38z"/>
				<path d="M2076.69,1232.105c-0.717,0.11-1.402-0.355-1.558-1.07c-0.161-0.747,0.31-1.482,1.054-1.643
					c31.948-6.945,57.847-35.558,61.582-68.036c0.089-0.772,0.165-1.572,0.219-2.395c-4.472,0.288-8.53,0.04-11.975-0.833
					c-7.614-1.933-12.108-6.734-13-13.881c-0.419-3.375,1.292-6.332,4.698-8.114c4.468-2.341,12.036-2.413,16.462,1.552
					c4.415,3.962,6.687,10.238,6.679,18.333c20.504-2.215,48.44-14.995,64.436-29.816c-3.532-1.28-6.884-3.024-9.936-5.229
					c-7.797-5.636-12.431-13.303-12.717-21.037c-0.303-8.323,5.834-17.864,15.187-18.248c8.494-0.348,15.187,6.946,17.41,14.331
					c2.55,8.464,4.288,17.167-0.223,23.474c-1.301,1.817-2.815,3.625-4.514,5.419c11.116,2.724,23.448,0.887,32.899-5.58
					c13.573-9.282,20.42-27.57,16.277-43.484c-0.192-0.737,0.249-1.489,0.988-1.682c0.663-0.194,1.489,0.246,1.682,0.988
					c4.427,17.002-2.885,36.54-17.387,46.457c-10.537,7.207-24.43,9.032-36.702,5.55c-16.305,15.619-45.855,29.235-67.482,31.557
					c-0.057,0.961-0.143,1.947-0.259,2.952c-3.869,33.614-30.673,63.23-63.737,70.418
					C2076.746,1232.096,2076.717,1232.101,2076.69,1232.105z M2122.658,1137.427c-1.348,0.207-2.613,0.6-3.666,1.151
					c-1.671,0.875-3.591,2.509-3.239,5.324c0.75,6.01,4.431,9.897,10.94,11.549c3.281,0.833,7.144,1.073,11.398,0.805
					c0.037-5.927-1.19-12.417-5.762-16.516C2129.885,1137.546,2126.01,1136.913,2122.658,1137.427z M2196.756,1084.56
					c-6.859,1.052-11.602,8.638-11.359,15.275c0.25,6.878,4.47,13.766,11.571,18.9c3.211,2.319,6.78,4.093,10.536,5.322
					c2.009-2.034,3.779-4.098,5.263-6.172c3.815-5.336,2.172-13.279-0.177-21.07c-1.869-6.212-7.641-12.655-14.655-12.367
					C2197.537,1084.462,2197.142,1084.5,2196.756,1084.56z"/>
				<path d="M2451.128,1118.618c-4.17,0.64-8.47,0.947-12.829,0.762c-13.777-0.579-26.316-6.57-33.582-15.854
					c-25.818-1.156-51.028-16.852-63.268-39.612c-0.362-0.67-0.111-1.508,0.562-1.867c0.655-0.373,1.507-0.114,1.867,0.562
					c11.456,21.296,34.699,36.175,58.817,38.029c-7.838-12.622-5.292-30.019,5.598-38.06c5.882-4.344,14.228-5.188,21.79-2.208
					c6.732,2.657,11.253,7.754,12.407,13.98c1.531,8.271-2.774,17.476-10.712,22.904c-6.028,4.118-13.888,6.254-23.401,6.335
					c6.931,7.651,17.963,12.526,30.04,13.035c14.293,0.6,28.065-4.34,38.476-8.71c6.593-2.767,13.303-5.973,18.803-10.624
					c-3.183-1.563-6.145-3.487-8.819-5.755c-5.852-4.958-9.891-12.441-10.288-19.067c-0.263-4.386,1.047-8.269,3.795-11.229
					c3.033-3.271,7.642-4.78,12.645-4.154c5.893,0.746,11.183,4.225,13.806,9.075c5.193,9.605,1.501,21.148-4.459,28.324
					c-0.56,0.672-1.139,1.32-1.736,1.946c7.106,2.693,15.124,3.62,23.286,2.57c13.11-1.703,24.77-8.332,31.687-18.191
					c6.92-9.862,9.228-22.979,6.33-35.991c-2.896-13.012-10.545-23.912-20.991-29.905c-0.661-0.379-0.891-1.222-0.51-1.883
					s1.227-0.889,1.883-0.51c11.115,6.379,19.25,17.93,22.313,31.696c3.063,13.769,0.6,27.684-6.764,38.176
					c-7.365,10.495-19.644,17.552-33.596,19.345c-9.072,1.168-17.995,0.014-25.813-3.203c-5.948,5.355-13.299,8.899-20.504,11.924
					C2470.424,1113.624,2461.15,1117.081,2451.128,1118.618z M2488.781,1059.859c-2.526,0.387-4.749,1.506-6.376,3.258
					c-2.254,2.429-3.282,5.519-3.063,9.189c0.355,5.91,4.012,12.631,9.316,17.124c2.777,2.35,5.884,4.309,9.237,5.851
					c0.822-0.811,1.61-1.662,2.354-2.559c5.196-6.254,8.711-16.821,4.156-25.251c-2.173-4.016-6.777-7.019-11.724-7.646
					C2491.33,1059.653,2490.021,1059.669,2488.781,1059.859z M2406.132,1100.813c0.293,0.007,0.585,0.011,0.878,0.016
					c9.555,0.116,17.366-1.856,23.208-5.856c7.052-4.821,10.893-12.907,9.558-20.12c-0.975-5.272-4.878-9.615-10.705-11.915
					c-6.584-2.598-14.097-1.869-19.138,1.858c-9.811,7.246-12.016,23.047-4.815,34.504
					C2405.438,1099.815,2405.777,1100.317,2406.132,1100.813z"/>
			</g>
			<path style="fill:#FF9E79;" d="M2623.53,1368.714c-6.579,20.837-18.698,42.691-38.816,61.918c0,0-0.094,5.209-0.674,14.178
				c-2.682,45.15-16.04,185.658-78.77,232.589l5.357,217.005c0,0,18.413,120.053-121.793,152.728
				c-140.207,32.675-224.463-23.604-294.357-106.773l5.407-429.781c0,0-70.94,10.88-103.649-56.712s-4.553-138.934,48.744-119.182
				l-1.925-12.551c-2.837-18.499-5.608-36.562-5.608-36.562s62.699-6.712,101.565-40.265c15.091-13.038,26.604-30.108,29.435-52.436
				c0,0,115.433-12.119,124.706-97.321c0,0,157.348,115.5,264.009,9.775c0,0,16.773,36.525,18.848,86.474
				c1.627,39.015,3.314,94.442,3.314,94.442s36.525-16.773,46.166,9.675C2631.162,1311.411,2632.891,1339.072,2623.53,1368.714z"/>
			<path style="opacity:0.6;fill:#602929;" d="M2227,1647.471c0,0,155.238,138.164,278.271,29.929l1.853,75.049
				C2507.123,1752.449,2366.269,1827.181,2227,1647.471z"/>
			<path style="fill:#4D5060;" d="M2137.065,1377.196c-7.746,3.031-20.557,6.169-28.311,9.146
				c-26.013-23.937-44.894-37.797-63.776-51.657c-2.837-18.499-8.37-54.569-8.37-54.569s63.536-1.255,102.402-34.808
				C2123.792,1288.47,2119.264,1332.506,2137.065,1377.196z"/>
			<g>
				<path style="fill:#1C1E33;" d="M2208.35,1281.03c0,0,93.214-57.618,144.258-35.872c25.395,10.819,12.838,32.936,0.653,34.91
					c-12.186,1.974-52.365,0.979-71.468,6.574c-19.103,5.595-62.577,15.139-67.846,13.491
					C2208.677,1298.485,2199.786,1289.921,2208.35,1281.03z"/>
				<path style="fill:#1C1E33;" d="M2441.417,1265.067c-6.262,0.323-13.851-0.039-16.933-5.5
					c-3.556-6.302,1.942-13.929,7.811-18.163c13.9-10.028,31.671-13.7,48.787-12.796c17.116,0.904,33.733,6.081,49.662,12.408
					c6.462,2.567,14.075,7.468,12.731,14.291c-1.35,6.848-10.276,8.466-17.255,8.564
					C2497.772,1264.274,2469.855,1263.431,2441.417,1265.067z"/>
				<path style="opacity:0.6;fill:#602929;" d="M2399.332,1442.206c-1.377,0.211-2.72-0.646-3.083-2.02
					c-0.39-1.478,0.485-2.987,1.961-3.377c17.328-4.594,33.091-13.857,45.587-26.786c0.665-0.697,0.833-1.791,0.408-2.73
					c-15.028-33.225-25.731-68.297-31.811-104.242c-0.255-1.504,0.759-2.928,2.261-3.183c1.738-0.193,2.927,0.756,3.183,2.261
					c6.001,35.482,16.563,70.096,31.396,102.887c1.369,3.024,0.794,6.494-1.464,8.837c-13.197,13.658-29.843,23.439-48.146,28.291
					C2399.525,1442.171,2399.427,1442.191,2399.332,1442.206z"/>
				
					<ellipse transform="matrix(0.9996 -0.0268 0.0268 0.9996 -37.5268 60.6552)" style="opacity:0.32;fill:#CC4C46;" cx="2247.036" cy="1432.156" rx="69.009" ry="49.687"/>
				<path style="opacity:0.32;fill:#CC4C46;" d="M2584.713,1430.632c0.137,3.546-0.094,5.209-0.674,14.178
					c-1.352,0.654-2.767,1.262-4.19,1.815c-35.957,14.284-73.271,5.15-83.379-20.333c-10.171-25.529,10.751-57.725,46.708-72.009
					c11.343-4.508,22.832-6.683,33.561-6.743C2576.739,1347.541,2583.905,1409.78,2584.713,1430.632z"/>
				<path style="opacity:0.6;fill:#602929;" d="M2067.925,1420.41c-1.207,0.185-2.437-0.455-2.947-1.626
					c-6.858-15.748-17.357-30.004-30.364-41.231c-6.89-5.944-12.474-8.393-17.575-7.703c-0.072,0.008-0.144,0.019-0.214,0.03
					c-4.167,0.639-8.203,3.557-11.103,8.033c-2.77,4.276-4.285,9.401-5.717,14.717c-0.396,1.473-1.909,2.349-3.383,1.948
					c-1.473-0.396-2.344-1.912-1.948-3.383c1.552-5.758,3.209-11.335,6.415-16.283c3.826-5.902,9.296-9.806,15.211-10.534
					c8.908-1.203,16.776,4.559,21.921,8.995c13.629,11.764,24.632,26.707,31.818,43.206c0.61,1.401-0.03,3.026-1.428,3.634
					C2068.387,1420.312,2068.157,1420.374,2067.925,1420.41z"/>
				<path style="opacity:0.6;fill:#602929;" d="M2026.5,1443.639c-1.045,0.16-2.133-0.289-2.742-1.238
					c-13.212-20.549-13.17-49.221,0.102-69.729c0.825-1.286,2.531-1.651,3.816-0.817c1.28,0.826,1.646,2.537,0.817,3.815
					c-12.132,18.748-12.17,44.962-0.092,63.749c0.826,1.281,0.453,2.991-0.828,3.814
					C2027.235,1443.45,2026.871,1443.583,2026.5,1443.639z"/>
				<g>
					
						<ellipse transform="matrix(0.9973 -0.0732 0.0732 0.9973 -93.2404 172.5942)" style="fill:#1C1E33;" cx="2308.351" cy="1358.521" rx="19.323" ry="35.885"/>
					<path style="fill:#FFFFFF;" d="M2320.738,1348.243c0.462,3.014-0.385,5.644-1.892,5.875s-3.103-2.025-3.565-5.038
						c-0.462-3.014,0.385-5.644,1.892-5.875C2318.679,1342.973,2320.276,1345.229,2320.738,1348.243z"/>
					
						<ellipse transform="matrix(0.9884 -0.1516 0.1516 0.9884 -180.9073 366.0291)" cx="2310.025" cy="1369.434" rx="8.281" ry="13.802"/>
				</g>
				<g>
					
						<ellipse transform="matrix(0.9973 -0.0732 0.0732 0.9973 -90.8118 185.3032)" style="fill:#1C1E33;" cx="2482.973" cy="1331.738" rx="19.323" ry="35.885"/>
					<path style="fill:#FFFFFF;" d="M2496.197,1326.917c0.462,3.014-0.385,5.644-1.892,5.875c-1.507,0.231-3.103-2.025-3.565-5.038
						c-0.462-3.014,0.385-5.644,1.892-5.875S2495.735,1323.903,2496.197,1326.917z"/>
					<path d="M2492.833,1341.396c1.156,7.534-1.573,14.204-6.093,14.898c-4.521,0.693-9.122-4.852-10.278-12.387
						c-1.156-7.535,1.572-14.204,6.093-14.898C2487.075,1328.316,2491.677,1333.862,2492.833,1341.396z"/>
				</g>
				<path style="opacity:0.6;fill:#602929;" d="M2614.775,1304.475c-14.682,0.024-27.613,12.979-27.702,27.637
					c-0.009,1.523,1.218,2.769,2.742,2.781c0.15-0.001,0.298-0.013,0.439-0.035c1.319-0.202,2.332-1.334,2.339-2.71
					c0.04-6.365,3.325-12.358,8.15-16.528c10.253,14.823,12.418,34.985,5.442,51.609c-0.592,1.405,0.071,3.022,1.476,3.613
					c0.487,0.203,0.999,0.256,1.484,0.181c0.919-0.141,1.743-0.742,2.128-1.663c7.687-18.308,5.303-40.523-5.977-56.854
					c2.944-1.537,6.161-2.503,9.501-2.518c1.554,0.018,2.758-1.241,2.749-2.773
					C2617.54,1305.699,2616.299,1304.466,2614.775,1304.475z"/>
			</g>
			<path style="fill:#FFFFFF;" d="M2513.859,1296.407c-43.128,6.615-75.545,27.779-79.867,50.483
				c-8.398-4.147-18.069-5.508-27.297-3.671c-9.392,1.878-17.916,6.992-24.093,14.244c-9.307-21.992-48.925-33.461-95.213-26.362
				c-32.679,5.012-59.377,17.873-73.105,33.357l-166.438-35.539l-1.117,5.238l163.865,34.985c-4.916,7.09-7.207,14.585-6.061,22.058
				c3.982,25.963,46.614,40.244,97.059,32.507c50.308-7.716,86.62-33.995,82.867-59.89c5.399-7.768,14.019-13.488,23.285-15.348
				c8.657-1.678,18.107-0.115,25.819,4.246c0.029,1.109,0.031,2.217,0.201,3.327c3.979,25.942,45.393,40.388,94.284,32.889
				c48.891-7.499,84.072-33.692,80.093-59.634C2604.164,1303.354,2562.75,1288.908,2513.859,1296.407z M2300.781,1418.409
				c-46.685,7.16-87.487-5.41-90.955-28.021s31.69-46.835,78.375-53.995c46.685-7.16,87.487,5.413,90.955,28.024
				C2382.624,1387.028,2347.466,1411.249,2300.781,1418.409z M2527.25,1383.718c-45.204,6.933-84.801-5.839-88.272-28.476
				c-0.28-1.828-0.232-3.664-0.038-5.5l0.015-0.022c-0.003-0.002-0.007-0.004-0.011-0.006c2.231-20.9,34.179-41.724,75.715-48.095
				c45.204-6.933,84.801,5.839,88.273,28.476C2606.403,1352.733,2572.454,1376.785,2527.25,1383.718z"/>
			<path style="opacity:0.6;fill:#602929;" d="M2409.855,1529.511c-20.523,0-40.979-5.614-57.906-17.112
				c-1.579-1.073-1.991-3.225-0.918-4.804c1.07-1.579,3.222-1.97,4.798-0.918c36.067,24.508,89.301,20.412,121.194-9.325
				c1.393-1.302,3.58-1.221,4.882,0.169c1.302,1.397,1.225,3.583-0.172,4.879
				C2462.549,1520.287,2436.152,1529.511,2409.855,1529.511z"/>
			<path style="opacity:0.6;fill:#602929;" d="M2422.136,1558.642c-6.994,0-13.995-1.498-20.389-4.602
				c-1.717-0.837-2.432-2.901-1.599-4.622c0.833-1.714,2.898-2.429,4.615-1.599c15.503,7.531,36.02,3.657,47.704-9.015
				c1.299-1.41,3.482-1.491,4.882-0.196c1.404,1.289,1.491,3.475,0.199,4.879
				C2448.473,1553.331,2435.312,1558.642,2422.136,1558.642z"/>
		</g>
	</g>
	<g>
		<path style="fill:#6D6D78;" d="M3352.494,3139.05H2141.562c-55.569,0-98.521-48.776-91.493-103.898l93.492-733.287
			c5.872-46.056,45.064-80.568,91.493-80.568h1210.932c55.569,0,98.521,48.776,91.493,103.899l-93.492,733.287
			C3438.115,3104.538,3398.923,3139.05,3352.494,3139.05z"/>
		
			<ellipse transform="matrix(0.7071 -0.7071 0.7071 0.7071 -1061.9135 2796.7925)" style="fill:#FFFFFF;" cx="2845.071" cy="2680.239" rx="83.223" ry="83.223"/>
	</g>
	<path style="fill:#6D6D78;" d="M1760.677,3079.627h396.958v59.423h-453.751c-0.726,0-1.315-0.589-1.315-1.315l0,0
		C1702.569,3105.643,1728.585,3079.627,1760.677,3079.627z"/>
</g>
<g id="cactus">
	<g>
		<path style="fill:#7BBE79;" d="M3975.372,2655.806c0,93.232-66.87,90.31-119.21,90.31c-71.431,0-119.21-15.592-119.21-90.31
			c0-112.418,38.296-203.552,119.21-203.552C3922,2452.254,3975.372,2543.387,3975.372,2655.806z"/>
		
			<rect x="3794.803" y="2519.517" transform="matrix(0.7062 -0.708 0.708 0.7062 -678.9819 3434.4199)" style="fill:#40592F;" width="7.229" height="31.508"/>
		
			<rect x="3927.395" y="2580.226" transform="matrix(0.978 -0.2087 0.2087 0.978 -452.5084 879.6454)" style="fill:#40592F;" width="28.34" height="7.224"/>
		
			<rect x="3866.918" y="2653.896" transform="matrix(0.9939 -0.1106 0.1106 0.9939 -271.1123 444.4012)" style="fill:#40592F;" width="7.227" height="24.532"/>
		
			<rect x="3771.635" y="2614.438" transform="matrix(0.6508 -0.7592 0.7592 0.6508 -676.2225 3783.4905)" style="fill:#40592F;" width="7.225" height="24.975"/>
		
			<rect x="3866.985" y="2470.237" transform="matrix(0.2745 -0.9616 0.9616 0.2745 433.8268 5522.6982)" style="fill:#40592F;" width="19.726" height="7.223"/>
		<polygon style="fill:#40592F;" points="3819.593,2466.455 3808.753,2450.189 3814.773,2446.188 3825.601,2462.442 		"/>
		
			<rect x="3968.102" y="2640.519" transform="matrix(0.9488 -0.3157 0.3157 0.9488 -631.2879 1391.8269)" style="fill:#40592F;" width="23.134" height="7.22"/>
		
			<rect x="3932.45" y="2506.935" transform="matrix(0.5997 -0.8002 0.8002 0.5997 -430.9182 4159.6123)" style="fill:#40592F;" width="20.011" height="7.226"/>
		
			<rect x="3740.03" y="2540.844" transform="matrix(0.5901 -0.8073 0.8073 0.5901 -527.7833 4069.2124)" style="fill:#40592F;" width="7.222" height="27.09"/>
		
			<rect x="3799.366" y="2706.73" transform="matrix(0.2754 -0.9613 0.9613 0.2754 142.0598 5625.8389)" style="fill:#40592F;" width="7.226" height="23.905"/>
		
			<rect x="3854.537" y="2580.336" transform="matrix(0.2433 -0.9699 0.9699 0.2433 416.4506 5701.7129)" style="fill:#40592F;" width="15.991" height="7.222"/>
		
			<rect x="3926.932" y="2711.782" transform="matrix(0.8323 -0.5543 0.5543 0.8323 -845.2977 2636.6309)" style="fill:#40592F;" width="16.282" height="7.218"/>
		<g>
			<path style="fill:#7BBE79;" d="M3798.418,2455.641c0,30.325-27.008,54.907-60.323,54.907c-33.315,0-51.427-27.97-51.427-58.294
				c0-30.325,16.968-68.162,50.284-68.162S3798.418,2425.317,3798.418,2455.641z"/>
			
				<rect x="3691.24" y="2415.815" transform="matrix(0.6402 -0.7682 0.7682 0.6402 -531.8489 3709.9956)" style="fill:#40592F;" width="7.224" height="13.964"/>
			<rect x="3731.822" y="2381.206" style="fill:#40592F;" width="7.231" height="13.547"/>
			<polygon style="fill:#40592F;" points="3777.996,2430.331 3774.161,2424.205 3787.287,2416 3791.11,2422.127 			"/>
			
				<rect x="3741.407" y="2449.75" transform="matrix(0.9871 -0.1602 0.1602 0.9871 -345.1237 631.7029)" style="fill:#40592F;" width="7.228" height="12.858"/>
			
				<rect x="3707.065" y="2482.963" transform="matrix(0.3194 -0.9476 0.9476 0.3194 165.6998 5211.4028)" style="fill:#40592F;" width="7.228" height="14.778"/>
		</g>
	</g>
	<g>
		<path style="fill:#468AF8;" d="M4069.957,2742.837v279.282c0,66.487-53.938,120.359-120.359,120.359H3773.79
			c-12.614,0-24.834-1.971-36.265-5.519c-48.748-15.439-84.094-60.968-84.094-114.84v-279.282H4069.957z"/>
		<rect x="3653.419" y="2834.807" style="fill:#FFFFFF;" width="416.51" height="21.436"/>
	</g>
</g>
<g id="cup">
	<g>
		<path style="fill:#FC8123;" d="M1242.301,2716.605l-39.143,425.38c-0.254,3.547-3.547,6.08-7.347,6.08H926.37
			c-3.8,0-6.967-2.533-7.347-5.953l-5.32-53.964l-36.61-368.882c-0.506-3.8,2.914-7.094,7.221-7.221l282.742-2.153l67.772-0.506
			C1239.261,2709.385,1242.682,2712.678,1242.301,2716.605z"/>
		<path style="fill:#FC8123;" d="M1242.301,2716.605l-39.143,425.38c-0.254,3.547-3.547,6.08-7.347,6.08H926.37
			c-3.8,0-6.967-2.533-7.347-5.953l-5.32-53.964c24.196-13.807,50.797-23.308,75.752-35.85
			c50.037-25.335,92.348-64.605,123.257-111.222c27.109-40.79,50.909-86.989,53.457-136.051c1.736-33.428,2.391-67.892,0.887-95.134
			l67.772-0.506C1239.261,2709.385,1242.682,2712.678,1242.301,2716.605z"/>
		<path style="fill:#FCA323;" d="M1175.638,3052.455c-5.975,0-11.431-4.008-13.02-10.057c-1.886-7.194,2.418-14.554,9.612-16.441
			c44.671-11.721,80.367-55.328,83.032-101.446c2.654-46.106-27.791-93.529-70.816-110.31c-6.928-2.703-10.354-10.509-7.651-17.437
			c2.697-6.928,10.515-10.367,17.437-7.651c54.295,21.173,91.271,78.771,87.913,136.95
			c-3.359,58.192-46.712,111.157-103.086,125.947C1177.914,3052.306,1176.763,3052.455,1175.638,3052.455z"/>
	</g>
</g>
<path id="table" style="fill:#3E3E45;" d="M4329.948,3208.153H617.052c-20.068,0-36.337-16.268-36.337-36.337l0,0
	c0-20.068,16.268-36.337,36.337-36.337h3712.896c20.068,0,36.337,16.269,36.337,36.337l0,0
	C4366.285,3191.885,4350.016,3208.153,4329.948,3208.153z"/>
</svg>
